<mxfile host="app.diagrams.net" modified="2022-06-18T02:57:28.376Z" agent="5.0 (Windows NT 10.0; Win64; x64) AppleWebKit/537.36 (KHTML, like Gecko) Chrome/90.0.4430.72 Safari/537.36" etag="eGNV5zAvlN696S7iB2Ki" version="19.0.3" type="github">
  <diagram id="745gx9OzcTvfiK2SG3xO" name="第 1 页">
    <mxGraphModel dx="1185" dy="635" grid="0" gridSize="10" guides="1" tooltips="1" connect="1" arrows="1" fold="1" page="1" pageScale="1" pageWidth="1169" pageHeight="827" math="0" shadow="0">
      <root>
        <mxCell id="0" />
        <mxCell id="1" parent="0" />
        <mxCell id="IBDVpuvRUq0DMvx8c1Gj-1" value="task 1" style="swimlane;fillColor=none;strokeColor=#FF00FF;" vertex="1" parent="1">
          <mxGeometry x="97.5" y="28" width="129" height="374" as="geometry">
            <mxRectangle x="93.5" y="5" width="61" height="23" as="alternateBounds" />
          </mxGeometry>
        </mxCell>
        <mxCell id="IBDVpuvRUq0DMvx8c1Gj-2" value="1&lt;br&gt;100" style="ellipse;whiteSpace=wrap;html=1;fillColor=#f9f7ed;strokeColor=#36393d;" vertex="1" parent="IBDVpuvRUq0DMvx8c1Gj-1">
          <mxGeometry x="29.5" y="32" width="70" height="50" as="geometry" />
        </mxCell>
        <mxCell id="IBDVpuvRUq0DMvx8c1Gj-3" value="3&lt;br&gt;100" style="ellipse;whiteSpace=wrap;html=1;fillColor=#f9f7ed;strokeColor=#36393d;" vertex="1" parent="IBDVpuvRUq0DMvx8c1Gj-1">
          <mxGeometry x="29.5" y="117" width="70" height="50" as="geometry" />
        </mxCell>
        <mxCell id="IBDVpuvRUq0DMvx8c1Gj-4" style="edgeStyle=orthogonalEdgeStyle;rounded=0;orthogonalLoop=1;jettySize=auto;html=1;curved=1;" edge="1" parent="IBDVpuvRUq0DMvx8c1Gj-1" source="IBDVpuvRUq0DMvx8c1Gj-2" target="IBDVpuvRUq0DMvx8c1Gj-3">
          <mxGeometry relative="1" as="geometry" />
        </mxCell>
        <mxCell id="IBDVpuvRUq0DMvx8c1Gj-5" value="5&lt;br&gt;100" style="ellipse;whiteSpace=wrap;html=1;fillColor=#f9f7ed;strokeColor=#36393d;" vertex="1" parent="IBDVpuvRUq0DMvx8c1Gj-1">
          <mxGeometry x="29.5" y="210" width="70" height="50" as="geometry" />
        </mxCell>
        <mxCell id="IBDVpuvRUq0DMvx8c1Gj-6" style="edgeStyle=orthogonalEdgeStyle;curved=1;rounded=0;orthogonalLoop=1;jettySize=auto;html=1;" edge="1" parent="IBDVpuvRUq0DMvx8c1Gj-1" source="IBDVpuvRUq0DMvx8c1Gj-3" target="IBDVpuvRUq0DMvx8c1Gj-5">
          <mxGeometry relative="1" as="geometry" />
        </mxCell>
        <mxCell id="IBDVpuvRUq0DMvx8c1Gj-7" value="7&lt;br&gt;100" style="ellipse;whiteSpace=wrap;html=1;fillColor=#f9f7ed;strokeColor=#36393d;" vertex="1" parent="IBDVpuvRUq0DMvx8c1Gj-1">
          <mxGeometry x="29.5" y="303" width="70" height="50" as="geometry" />
        </mxCell>
        <mxCell id="IBDVpuvRUq0DMvx8c1Gj-8" style="edgeStyle=orthogonalEdgeStyle;curved=1;rounded=0;orthogonalLoop=1;jettySize=auto;html=1;" edge="1" parent="IBDVpuvRUq0DMvx8c1Gj-1" source="IBDVpuvRUq0DMvx8c1Gj-5" target="IBDVpuvRUq0DMvx8c1Gj-7">
          <mxGeometry relative="1" as="geometry" />
        </mxCell>
        <mxCell id="IBDVpuvRUq0DMvx8c1Gj-9" style="edgeStyle=orthogonalEdgeStyle;curved=1;rounded=0;orthogonalLoop=1;jettySize=auto;html=1;entryX=0;entryY=0.5;entryDx=0;entryDy=0;" edge="1" parent="1" source="IBDVpuvRUq0DMvx8c1Gj-2" target="IBDVpuvRUq0DMvx8c1Gj-16">
          <mxGeometry relative="1" as="geometry" />
        </mxCell>
        <mxCell id="IBDVpuvRUq0DMvx8c1Gj-10" style="edgeStyle=orthogonalEdgeStyle;curved=1;rounded=0;orthogonalLoop=1;jettySize=auto;html=1;entryX=0;entryY=0.5;entryDx=0;entryDy=0;" edge="1" parent="1" source="IBDVpuvRUq0DMvx8c1Gj-2" target="IBDVpuvRUq0DMvx8c1Gj-20">
          <mxGeometry relative="1" as="geometry" />
        </mxCell>
        <mxCell id="IBDVpuvRUq0DMvx8c1Gj-11" value="" style="endArrow=none;html=1;rounded=0;curved=1;dashed=1;strokeColor=#0000FF;strokeWidth=2;" edge="1" parent="1">
          <mxGeometry width="50" height="50" relative="1" as="geometry">
            <mxPoint x="86" y="125" as="sourcePoint" />
            <mxPoint x="420" y="125" as="targetPoint" />
          </mxGeometry>
        </mxCell>
        <mxCell id="IBDVpuvRUq0DMvx8c1Gj-12" value="" style="endArrow=none;html=1;rounded=0;curved=1;dashed=1;strokeColor=#0000FF;strokeWidth=2;" edge="1" parent="1">
          <mxGeometry width="50" height="50" relative="1" as="geometry">
            <mxPoint x="87" y="215" as="sourcePoint" />
            <mxPoint x="423" y="215" as="targetPoint" />
          </mxGeometry>
        </mxCell>
        <mxCell id="IBDVpuvRUq0DMvx8c1Gj-13" value="" style="endArrow=none;html=1;rounded=0;curved=1;dashed=1;strokeColor=#0000FF;strokeWidth=2;" edge="1" parent="1">
          <mxGeometry width="50" height="50" relative="1" as="geometry">
            <mxPoint x="86" y="305" as="sourcePoint" />
            <mxPoint x="420" y="305" as="targetPoint" />
          </mxGeometry>
        </mxCell>
        <mxCell id="IBDVpuvRUq0DMvx8c1Gj-14" value="task 2" style="swimlane;fillColor=none;strokeColor=#FF00FF;" vertex="1" parent="1">
          <mxGeometry x="277.5" y="28" width="129" height="374" as="geometry">
            <mxRectangle x="273.5" y="5" width="61" height="23" as="alternateBounds" />
          </mxGeometry>
        </mxCell>
        <mxCell id="IBDVpuvRUq0DMvx8c1Gj-15" value="2&lt;br&gt;100" style="ellipse;whiteSpace=wrap;html=1;fillColor=#f9f7ed;strokeColor=#36393d;" vertex="1" parent="IBDVpuvRUq0DMvx8c1Gj-14">
          <mxGeometry x="29.5" y="32" width="70" height="50" as="geometry" />
        </mxCell>
        <mxCell id="IBDVpuvRUq0DMvx8c1Gj-16" value="4&lt;br&gt;100" style="ellipse;whiteSpace=wrap;html=1;fillColor=#f9f7ed;strokeColor=#36393d;" vertex="1" parent="IBDVpuvRUq0DMvx8c1Gj-14">
          <mxGeometry x="29.5" y="117" width="70" height="50" as="geometry" />
        </mxCell>
        <mxCell id="IBDVpuvRUq0DMvx8c1Gj-17" style="edgeStyle=orthogonalEdgeStyle;curved=1;rounded=0;orthogonalLoop=1;jettySize=auto;html=1;" edge="1" parent="IBDVpuvRUq0DMvx8c1Gj-14" source="IBDVpuvRUq0DMvx8c1Gj-15" target="IBDVpuvRUq0DMvx8c1Gj-16">
          <mxGeometry relative="1" as="geometry" />
        </mxCell>
        <mxCell id="IBDVpuvRUq0DMvx8c1Gj-18" value="6&lt;br&gt;100" style="ellipse;whiteSpace=wrap;html=1;fillColor=#f9f7ed;strokeColor=#36393d;" vertex="1" parent="IBDVpuvRUq0DMvx8c1Gj-14">
          <mxGeometry x="29.5" y="210" width="70" height="50" as="geometry" />
        </mxCell>
        <mxCell id="IBDVpuvRUq0DMvx8c1Gj-19" style="edgeStyle=orthogonalEdgeStyle;curved=1;rounded=0;orthogonalLoop=1;jettySize=auto;html=1;" edge="1" parent="IBDVpuvRUq0DMvx8c1Gj-14" source="IBDVpuvRUq0DMvx8c1Gj-16" target="IBDVpuvRUq0DMvx8c1Gj-18">
          <mxGeometry relative="1" as="geometry" />
        </mxCell>
        <mxCell id="IBDVpuvRUq0DMvx8c1Gj-20" value="8&lt;br&gt;100" style="ellipse;whiteSpace=wrap;html=1;fillColor=#f9f7ed;strokeColor=#36393d;" vertex="1" parent="IBDVpuvRUq0DMvx8c1Gj-14">
          <mxGeometry x="29.5" y="303" width="70" height="50" as="geometry" />
        </mxCell>
        <mxCell id="IBDVpuvRUq0DMvx8c1Gj-21" style="edgeStyle=orthogonalEdgeStyle;rounded=0;orthogonalLoop=1;jettySize=auto;html=1;" edge="1" parent="IBDVpuvRUq0DMvx8c1Gj-14" source="IBDVpuvRUq0DMvx8c1Gj-18" target="IBDVpuvRUq0DMvx8c1Gj-20">
          <mxGeometry relative="1" as="geometry" />
        </mxCell>
        <mxCell id="IBDVpuvRUq0DMvx8c1Gj-22" value="task 1" style="swimlane;fillColor=none;strokeColor=#FF00FF;" vertex="1" parent="1">
          <mxGeometry x="558" y="28" width="129" height="374" as="geometry">
            <mxRectangle x="93.5" y="5" width="61" height="23" as="alternateBounds" />
          </mxGeometry>
        </mxCell>
        <mxCell id="IBDVpuvRUq0DMvx8c1Gj-23" value="1&lt;br&gt;100" style="ellipse;whiteSpace=wrap;html=1;fillColor=#f9f7ed;strokeColor=#36393d;" vertex="1" parent="IBDVpuvRUq0DMvx8c1Gj-22">
          <mxGeometry x="29.5" y="32" width="70" height="50" as="geometry" />
        </mxCell>
        <mxCell id="IBDVpuvRUq0DMvx8c1Gj-24" value="3&lt;br&gt;100" style="ellipse;whiteSpace=wrap;html=1;fillColor=#f9f7ed;strokeColor=#36393d;" vertex="1" parent="IBDVpuvRUq0DMvx8c1Gj-22">
          <mxGeometry x="29.5" y="117" width="70" height="50" as="geometry" />
        </mxCell>
        <mxCell id="IBDVpuvRUq0DMvx8c1Gj-25" style="edgeStyle=orthogonalEdgeStyle;rounded=0;orthogonalLoop=1;jettySize=auto;html=1;curved=1;" edge="1" parent="IBDVpuvRUq0DMvx8c1Gj-22" source="IBDVpuvRUq0DMvx8c1Gj-23" target="IBDVpuvRUq0DMvx8c1Gj-24">
          <mxGeometry relative="1" as="geometry" />
        </mxCell>
        <mxCell id="IBDVpuvRUq0DMvx8c1Gj-26" value="5&lt;br&gt;100" style="ellipse;whiteSpace=wrap;html=1;fillColor=#f9f7ed;strokeColor=#36393d;" vertex="1" parent="IBDVpuvRUq0DMvx8c1Gj-22">
          <mxGeometry x="29.5" y="210" width="70" height="50" as="geometry" />
        </mxCell>
        <mxCell id="IBDVpuvRUq0DMvx8c1Gj-27" style="edgeStyle=orthogonalEdgeStyle;curved=1;rounded=0;orthogonalLoop=1;jettySize=auto;html=1;" edge="1" parent="IBDVpuvRUq0DMvx8c1Gj-22" source="IBDVpuvRUq0DMvx8c1Gj-24" target="IBDVpuvRUq0DMvx8c1Gj-26">
          <mxGeometry relative="1" as="geometry" />
        </mxCell>
        <mxCell id="IBDVpuvRUq0DMvx8c1Gj-28" value="7&lt;br&gt;100" style="ellipse;whiteSpace=wrap;html=1;fillColor=#f9f7ed;strokeColor=#36393d;" vertex="1" parent="IBDVpuvRUq0DMvx8c1Gj-22">
          <mxGeometry x="29.5" y="303" width="70" height="50" as="geometry" />
        </mxCell>
        <mxCell id="IBDVpuvRUq0DMvx8c1Gj-29" style="edgeStyle=orthogonalEdgeStyle;curved=1;rounded=0;orthogonalLoop=1;jettySize=auto;html=1;" edge="1" parent="IBDVpuvRUq0DMvx8c1Gj-22" source="IBDVpuvRUq0DMvx8c1Gj-26" target="IBDVpuvRUq0DMvx8c1Gj-28">
          <mxGeometry relative="1" as="geometry" />
        </mxCell>
        <mxCell id="IBDVpuvRUq0DMvx8c1Gj-30" style="edgeStyle=orthogonalEdgeStyle;curved=1;rounded=0;orthogonalLoop=1;jettySize=auto;html=1;entryX=0;entryY=0.5;entryDx=0;entryDy=0;" edge="1" parent="1" source="IBDVpuvRUq0DMvx8c1Gj-23" target="IBDVpuvRUq0DMvx8c1Gj-41">
          <mxGeometry relative="1" as="geometry" />
        </mxCell>
        <mxCell id="IBDVpuvRUq0DMvx8c1Gj-31" style="edgeStyle=orthogonalEdgeStyle;curved=1;rounded=0;orthogonalLoop=1;jettySize=auto;html=1;entryX=0;entryY=0.5;entryDx=0;entryDy=0;" edge="1" parent="1" source="IBDVpuvRUq0DMvx8c1Gj-26" target="IBDVpuvRUq0DMvx8c1Gj-41">
          <mxGeometry relative="1" as="geometry" />
        </mxCell>
        <mxCell id="IBDVpuvRUq0DMvx8c1Gj-32" value="" style="endArrow=none;html=1;rounded=0;curved=1;dashed=1;strokeColor=#0000FF;strokeWidth=2;" edge="1" parent="1">
          <mxGeometry width="50" height="50" relative="1" as="geometry">
            <mxPoint x="546.5" y="125" as="sourcePoint" />
            <mxPoint x="880.5" y="125" as="targetPoint" />
          </mxGeometry>
        </mxCell>
        <mxCell id="IBDVpuvRUq0DMvx8c1Gj-33" value="" style="endArrow=none;html=1;rounded=0;curved=1;dashed=1;strokeColor=#0000FF;strokeWidth=2;" edge="1" parent="1">
          <mxGeometry width="50" height="50" relative="1" as="geometry">
            <mxPoint x="547.5" y="215" as="sourcePoint" />
            <mxPoint x="883.5" y="215" as="targetPoint" />
          </mxGeometry>
        </mxCell>
        <mxCell id="IBDVpuvRUq0DMvx8c1Gj-34" value="" style="endArrow=none;html=1;rounded=0;curved=1;dashed=1;strokeColor=#0000FF;strokeWidth=2;" edge="1" parent="1">
          <mxGeometry width="50" height="50" relative="1" as="geometry">
            <mxPoint x="546.5" y="305" as="sourcePoint" />
            <mxPoint x="880.5" y="305" as="targetPoint" />
          </mxGeometry>
        </mxCell>
        <mxCell id="IBDVpuvRUq0DMvx8c1Gj-35" value="task 2" style="swimlane;fillColor=none;strokeColor=#FF00FF;" vertex="1" parent="1">
          <mxGeometry x="738" y="28" width="129" height="374" as="geometry">
            <mxRectangle x="273.5" y="5" width="61" height="23" as="alternateBounds" />
          </mxGeometry>
        </mxCell>
        <mxCell id="IBDVpuvRUq0DMvx8c1Gj-36" value="2&lt;br&gt;100" style="ellipse;whiteSpace=wrap;html=1;fillColor=#f9f7ed;strokeColor=#36393d;" vertex="1" parent="IBDVpuvRUq0DMvx8c1Gj-35">
          <mxGeometry x="29.5" y="32" width="70" height="50" as="geometry" />
        </mxCell>
        <mxCell id="IBDVpuvRUq0DMvx8c1Gj-37" value="4&lt;br&gt;100" style="ellipse;whiteSpace=wrap;html=1;fillColor=#f9f7ed;strokeColor=#36393d;" vertex="1" parent="IBDVpuvRUq0DMvx8c1Gj-35">
          <mxGeometry x="29.5" y="117" width="70" height="50" as="geometry" />
        </mxCell>
        <mxCell id="IBDVpuvRUq0DMvx8c1Gj-38" style="edgeStyle=orthogonalEdgeStyle;curved=1;rounded=0;orthogonalLoop=1;jettySize=auto;html=1;" edge="1" parent="IBDVpuvRUq0DMvx8c1Gj-35" source="IBDVpuvRUq0DMvx8c1Gj-36" target="IBDVpuvRUq0DMvx8c1Gj-37">
          <mxGeometry relative="1" as="geometry" />
        </mxCell>
        <mxCell id="IBDVpuvRUq0DMvx8c1Gj-39" value="6&lt;br&gt;100" style="ellipse;whiteSpace=wrap;html=1;fillColor=#f9f7ed;strokeColor=#36393d;" vertex="1" parent="IBDVpuvRUq0DMvx8c1Gj-35">
          <mxGeometry x="29.5" y="210" width="70" height="50" as="geometry" />
        </mxCell>
        <mxCell id="IBDVpuvRUq0DMvx8c1Gj-40" style="edgeStyle=orthogonalEdgeStyle;curved=1;rounded=0;orthogonalLoop=1;jettySize=auto;html=1;" edge="1" parent="IBDVpuvRUq0DMvx8c1Gj-35" source="IBDVpuvRUq0DMvx8c1Gj-37" target="IBDVpuvRUq0DMvx8c1Gj-39">
          <mxGeometry relative="1" as="geometry" />
        </mxCell>
        <mxCell id="IBDVpuvRUq0DMvx8c1Gj-41" value="8&lt;br&gt;100" style="ellipse;whiteSpace=wrap;html=1;fillColor=#f9f7ed;strokeColor=#36393d;" vertex="1" parent="IBDVpuvRUq0DMvx8c1Gj-35">
          <mxGeometry x="29.5" y="303" width="70" height="50" as="geometry" />
        </mxCell>
        <mxCell id="IBDVpuvRUq0DMvx8c1Gj-42" style="edgeStyle=orthogonalEdgeStyle;rounded=0;orthogonalLoop=1;jettySize=auto;html=1;" edge="1" parent="IBDVpuvRUq0DMvx8c1Gj-35" source="IBDVpuvRUq0DMvx8c1Gj-39" target="IBDVpuvRUq0DMvx8c1Gj-41">
          <mxGeometry relative="1" as="geometry" />
        </mxCell>
        <mxCell id="IBDVpuvRUq0DMvx8c1Gj-43" value="task 1" style="swimlane;fillColor=none;strokeColor=#FF00FF;" vertex="1" parent="1">
          <mxGeometry x="97.5" y="435" width="129" height="374" as="geometry">
            <mxRectangle x="93.5" y="5" width="61" height="23" as="alternateBounds" />
          </mxGeometry>
        </mxCell>
        <mxCell id="IBDVpuvRUq0DMvx8c1Gj-44" value="1&lt;br&gt;100" style="ellipse;whiteSpace=wrap;html=1;fillColor=#f9f7ed;strokeColor=#36393d;" vertex="1" parent="IBDVpuvRUq0DMvx8c1Gj-43">
          <mxGeometry x="29.5" y="32" width="70" height="50" as="geometry" />
        </mxCell>
        <mxCell id="IBDVpuvRUq0DMvx8c1Gj-45" value="3&lt;br&gt;100" style="ellipse;whiteSpace=wrap;html=1;fillColor=#f9f7ed;strokeColor=#36393d;" vertex="1" parent="IBDVpuvRUq0DMvx8c1Gj-43">
          <mxGeometry x="29.5" y="117" width="70" height="50" as="geometry" />
        </mxCell>
        <mxCell id="IBDVpuvRUq0DMvx8c1Gj-46" style="edgeStyle=orthogonalEdgeStyle;rounded=0;orthogonalLoop=1;jettySize=auto;html=1;curved=1;" edge="1" parent="IBDVpuvRUq0DMvx8c1Gj-43" source="IBDVpuvRUq0DMvx8c1Gj-44" target="IBDVpuvRUq0DMvx8c1Gj-45">
          <mxGeometry relative="1" as="geometry" />
        </mxCell>
        <mxCell id="IBDVpuvRUq0DMvx8c1Gj-47" value="5&lt;br&gt;100" style="ellipse;whiteSpace=wrap;html=1;fillColor=#f9f7ed;strokeColor=#36393d;" vertex="1" parent="IBDVpuvRUq0DMvx8c1Gj-43">
          <mxGeometry x="29.5" y="210" width="70" height="50" as="geometry" />
        </mxCell>
        <mxCell id="IBDVpuvRUq0DMvx8c1Gj-48" style="edgeStyle=orthogonalEdgeStyle;curved=1;rounded=0;orthogonalLoop=1;jettySize=auto;html=1;" edge="1" parent="IBDVpuvRUq0DMvx8c1Gj-43" source="IBDVpuvRUq0DMvx8c1Gj-45" target="IBDVpuvRUq0DMvx8c1Gj-47">
          <mxGeometry relative="1" as="geometry" />
        </mxCell>
        <mxCell id="IBDVpuvRUq0DMvx8c1Gj-49" value="7&lt;br&gt;100" style="ellipse;whiteSpace=wrap;html=1;fillColor=#f9f7ed;strokeColor=#36393d;" vertex="1" parent="IBDVpuvRUq0DMvx8c1Gj-43">
          <mxGeometry x="29.5" y="303" width="70" height="50" as="geometry" />
        </mxCell>
        <mxCell id="IBDVpuvRUq0DMvx8c1Gj-50" style="edgeStyle=orthogonalEdgeStyle;curved=1;rounded=0;orthogonalLoop=1;jettySize=auto;html=1;" edge="1" parent="IBDVpuvRUq0DMvx8c1Gj-43" source="IBDVpuvRUq0DMvx8c1Gj-47" target="IBDVpuvRUq0DMvx8c1Gj-49">
          <mxGeometry relative="1" as="geometry" />
        </mxCell>
        <mxCell id="IBDVpuvRUq0DMvx8c1Gj-51" style="edgeStyle=orthogonalEdgeStyle;curved=1;rounded=0;orthogonalLoop=1;jettySize=auto;html=1;entryX=0;entryY=0.5;entryDx=0;entryDy=0;strokeColor=#FF3399;" edge="1" parent="1" source="IBDVpuvRUq0DMvx8c1Gj-45" target="IBDVpuvRUq0DMvx8c1Gj-60">
          <mxGeometry relative="1" as="geometry" />
        </mxCell>
        <mxCell id="IBDVpuvRUq0DMvx8c1Gj-52" style="edgeStyle=orthogonalEdgeStyle;curved=1;rounded=0;orthogonalLoop=1;jettySize=auto;html=1;entryX=0;entryY=0.5;entryDx=0;entryDy=0;" edge="1" parent="1" source="IBDVpuvRUq0DMvx8c1Gj-44" target="IBDVpuvRUq0DMvx8c1Gj-62">
          <mxGeometry relative="1" as="geometry" />
        </mxCell>
        <mxCell id="IBDVpuvRUq0DMvx8c1Gj-53" value="" style="endArrow=none;html=1;rounded=0;curved=1;dashed=1;strokeColor=#0000FF;strokeWidth=2;" edge="1" parent="1">
          <mxGeometry width="50" height="50" relative="1" as="geometry">
            <mxPoint x="86" y="532" as="sourcePoint" />
            <mxPoint x="420" y="532" as="targetPoint" />
          </mxGeometry>
        </mxCell>
        <mxCell id="IBDVpuvRUq0DMvx8c1Gj-54" value="" style="endArrow=none;html=1;rounded=0;curved=1;dashed=1;strokeColor=#0000FF;strokeWidth=2;" edge="1" parent="1">
          <mxGeometry width="50" height="50" relative="1" as="geometry">
            <mxPoint x="87" y="622" as="sourcePoint" />
            <mxPoint x="423" y="622" as="targetPoint" />
          </mxGeometry>
        </mxCell>
        <mxCell id="IBDVpuvRUq0DMvx8c1Gj-55" value="" style="endArrow=none;html=1;rounded=0;curved=1;dashed=1;strokeColor=#0000FF;strokeWidth=2;" edge="1" parent="1">
          <mxGeometry width="50" height="50" relative="1" as="geometry">
            <mxPoint x="86" y="712" as="sourcePoint" />
            <mxPoint x="420" y="712" as="targetPoint" />
          </mxGeometry>
        </mxCell>
        <mxCell id="IBDVpuvRUq0DMvx8c1Gj-56" value="task 2" style="swimlane;fillColor=none;strokeColor=#FF00FF;" vertex="1" parent="1">
          <mxGeometry x="277.5" y="435" width="129" height="374" as="geometry">
            <mxRectangle x="273.5" y="5" width="61" height="23" as="alternateBounds" />
          </mxGeometry>
        </mxCell>
        <mxCell id="IBDVpuvRUq0DMvx8c1Gj-57" value="2&lt;br&gt;100" style="ellipse;whiteSpace=wrap;html=1;fillColor=#f9f7ed;strokeColor=#36393d;" vertex="1" parent="IBDVpuvRUq0DMvx8c1Gj-56">
          <mxGeometry x="29.5" y="32" width="70" height="50" as="geometry" />
        </mxCell>
        <mxCell id="IBDVpuvRUq0DMvx8c1Gj-58" value="4&lt;br&gt;100" style="ellipse;whiteSpace=wrap;html=1;fillColor=#f9f7ed;strokeColor=#36393d;" vertex="1" parent="IBDVpuvRUq0DMvx8c1Gj-56">
          <mxGeometry x="29.5" y="117" width="70" height="50" as="geometry" />
        </mxCell>
        <mxCell id="IBDVpuvRUq0DMvx8c1Gj-59" style="edgeStyle=orthogonalEdgeStyle;curved=1;rounded=0;orthogonalLoop=1;jettySize=auto;html=1;" edge="1" parent="IBDVpuvRUq0DMvx8c1Gj-56" source="IBDVpuvRUq0DMvx8c1Gj-57" target="IBDVpuvRUq0DMvx8c1Gj-58">
          <mxGeometry relative="1" as="geometry" />
        </mxCell>
        <mxCell id="IBDVpuvRUq0DMvx8c1Gj-60" value="6&lt;br&gt;100" style="ellipse;whiteSpace=wrap;html=1;fillColor=#f9f7ed;strokeColor=#36393d;" vertex="1" parent="IBDVpuvRUq0DMvx8c1Gj-56">
          <mxGeometry x="29.5" y="210" width="70" height="50" as="geometry" />
        </mxCell>
        <mxCell id="IBDVpuvRUq0DMvx8c1Gj-61" style="edgeStyle=orthogonalEdgeStyle;curved=1;rounded=0;orthogonalLoop=1;jettySize=auto;html=1;" edge="1" parent="IBDVpuvRUq0DMvx8c1Gj-56" source="IBDVpuvRUq0DMvx8c1Gj-58" target="IBDVpuvRUq0DMvx8c1Gj-60">
          <mxGeometry relative="1" as="geometry" />
        </mxCell>
        <mxCell id="IBDVpuvRUq0DMvx8c1Gj-62" value="8&lt;br&gt;100" style="ellipse;whiteSpace=wrap;html=1;fillColor=#f9f7ed;strokeColor=#36393d;" vertex="1" parent="IBDVpuvRUq0DMvx8c1Gj-56">
          <mxGeometry x="29.5" y="303" width="70" height="50" as="geometry" />
        </mxCell>
        <mxCell id="IBDVpuvRUq0DMvx8c1Gj-63" style="edgeStyle=orthogonalEdgeStyle;rounded=0;orthogonalLoop=1;jettySize=auto;html=1;" edge="1" parent="IBDVpuvRUq0DMvx8c1Gj-56" source="IBDVpuvRUq0DMvx8c1Gj-60" target="IBDVpuvRUq0DMvx8c1Gj-62">
          <mxGeometry relative="1" as="geometry" />
        </mxCell>
        <mxCell id="IBDVpuvRUq0DMvx8c1Gj-64" value="task 1" style="swimlane;fillColor=none;strokeColor=#FF00FF;" vertex="1" parent="1">
          <mxGeometry x="559" y="435" width="129" height="374" as="geometry">
            <mxRectangle x="93.5" y="5" width="61" height="23" as="alternateBounds" />
          </mxGeometry>
        </mxCell>
        <mxCell id="IBDVpuvRUq0DMvx8c1Gj-65" value="1&lt;br&gt;100" style="ellipse;whiteSpace=wrap;html=1;fillColor=#f9f7ed;strokeColor=#36393d;" vertex="1" parent="IBDVpuvRUq0DMvx8c1Gj-64">
          <mxGeometry x="29.5" y="32" width="70" height="50" as="geometry" />
        </mxCell>
        <mxCell id="IBDVpuvRUq0DMvx8c1Gj-66" value="3&lt;br&gt;100" style="ellipse;whiteSpace=wrap;html=1;fillColor=#f9f7ed;strokeColor=#36393d;" vertex="1" parent="IBDVpuvRUq0DMvx8c1Gj-64">
          <mxGeometry x="29.5" y="117" width="70" height="50" as="geometry" />
        </mxCell>
        <mxCell id="IBDVpuvRUq0DMvx8c1Gj-68" value="5&lt;br&gt;100" style="ellipse;whiteSpace=wrap;html=1;fillColor=#f9f7ed;strokeColor=#36393d;" vertex="1" parent="IBDVpuvRUq0DMvx8c1Gj-64">
          <mxGeometry x="29.5" y="210" width="70" height="50" as="geometry" />
        </mxCell>
        <mxCell id="IBDVpuvRUq0DMvx8c1Gj-70" value="7&lt;br&gt;100" style="ellipse;whiteSpace=wrap;html=1;fillColor=#f9f7ed;strokeColor=#36393d;" vertex="1" parent="IBDVpuvRUq0DMvx8c1Gj-64">
          <mxGeometry x="29.5" y="303" width="70" height="50" as="geometry" />
        </mxCell>
        <mxCell id="IBDVpuvRUq0DMvx8c1Gj-72" style="edgeStyle=orthogonalEdgeStyle;curved=1;rounded=0;orthogonalLoop=1;jettySize=auto;html=1;entryX=0;entryY=0.5;entryDx=0;entryDy=0;strokeColor=#FF3399;" edge="1" parent="1" source="IBDVpuvRUq0DMvx8c1Gj-66" target="IBDVpuvRUq0DMvx8c1Gj-81">
          <mxGeometry relative="1" as="geometry" />
        </mxCell>
        <mxCell id="IBDVpuvRUq0DMvx8c1Gj-73" style="edgeStyle=orthogonalEdgeStyle;curved=1;rounded=0;orthogonalLoop=1;jettySize=auto;html=1;entryX=0;entryY=0.5;entryDx=0;entryDy=0;" edge="1" parent="1" source="IBDVpuvRUq0DMvx8c1Gj-65" target="IBDVpuvRUq0DMvx8c1Gj-83">
          <mxGeometry relative="1" as="geometry" />
        </mxCell>
        <mxCell id="IBDVpuvRUq0DMvx8c1Gj-74" value="" style="endArrow=none;html=1;rounded=0;curved=1;dashed=1;strokeColor=#0000FF;strokeWidth=2;" edge="1" parent="1">
          <mxGeometry width="50" height="50" relative="1" as="geometry">
            <mxPoint x="547.5" y="532" as="sourcePoint" />
            <mxPoint x="881.5" y="532" as="targetPoint" />
          </mxGeometry>
        </mxCell>
        <mxCell id="IBDVpuvRUq0DMvx8c1Gj-75" value="" style="endArrow=none;html=1;rounded=0;curved=1;dashed=1;strokeColor=#0000FF;strokeWidth=2;" edge="1" parent="1">
          <mxGeometry width="50" height="50" relative="1" as="geometry">
            <mxPoint x="548.5" y="622" as="sourcePoint" />
            <mxPoint x="884.5" y="622" as="targetPoint" />
          </mxGeometry>
        </mxCell>
        <mxCell id="IBDVpuvRUq0DMvx8c1Gj-76" value="" style="endArrow=none;html=1;rounded=0;curved=1;dashed=1;strokeColor=#0000FF;strokeWidth=2;" edge="1" parent="1">
          <mxGeometry width="50" height="50" relative="1" as="geometry">
            <mxPoint x="547.5" y="712" as="sourcePoint" />
            <mxPoint x="881.5" y="712" as="targetPoint" />
          </mxGeometry>
        </mxCell>
        <mxCell id="IBDVpuvRUq0DMvx8c1Gj-77" value="task 2" style="swimlane;fillColor=none;strokeColor=#FF00FF;" vertex="1" parent="1">
          <mxGeometry x="739" y="435" width="129" height="374" as="geometry">
            <mxRectangle x="273.5" y="5" width="61" height="23" as="alternateBounds" />
          </mxGeometry>
        </mxCell>
        <mxCell id="IBDVpuvRUq0DMvx8c1Gj-78" value="2&lt;br&gt;100" style="ellipse;whiteSpace=wrap;html=1;fillColor=#f9f7ed;strokeColor=#36393d;" vertex="1" parent="IBDVpuvRUq0DMvx8c1Gj-77">
          <mxGeometry x="29.5" y="32" width="70" height="50" as="geometry" />
        </mxCell>
        <mxCell id="IBDVpuvRUq0DMvx8c1Gj-79" value="4&lt;br&gt;100" style="ellipse;whiteSpace=wrap;html=1;fillColor=#f9f7ed;strokeColor=#36393d;" vertex="1" parent="IBDVpuvRUq0DMvx8c1Gj-77">
          <mxGeometry x="29.5" y="117" width="70" height="50" as="geometry" />
        </mxCell>
        <mxCell id="IBDVpuvRUq0DMvx8c1Gj-81" value="6&lt;br&gt;100" style="ellipse;whiteSpace=wrap;html=1;fillColor=#f9f7ed;strokeColor=#36393d;" vertex="1" parent="IBDVpuvRUq0DMvx8c1Gj-77">
          <mxGeometry x="29.5" y="210" width="70" height="50" as="geometry" />
        </mxCell>
        <mxCell id="IBDVpuvRUq0DMvx8c1Gj-83" value="8&lt;br&gt;100" style="ellipse;whiteSpace=wrap;html=1;fillColor=#f9f7ed;strokeColor=#36393d;" vertex="1" parent="IBDVpuvRUq0DMvx8c1Gj-77">
          <mxGeometry x="29.5" y="303" width="70" height="50" as="geometry" />
        </mxCell>
      </root>
    </mxGraphModel>
  </diagram>
</mxfile>
